<svg width="32" height="32" viewBox="0 0 32 32" fill="none" xmlns="http://www.w3.org/2000/svg">
  <!-- Background gradient -->
  <defs>
    <linearGradient id="bg-gradient" x1="0%" y1="0%" x2="100%" y2="100%">
      <stop offset="0%" style="stop-color:#8b5cf6;stop-opacity:1" />
      <stop offset="50%" style="stop-color:#14b8a6;stop-opacity:1" />
      <stop offset="100%" style="stop-color:#f97316;stop-opacity:1" />
    </linearGradient>
    <linearGradient id="icon-gradient" x1="0%" y1="0%" x2="100%" y2="100%">
      <stop offset="0%" style="stop-color:#ffffff;stop-opacity:1" />
      <stop offset="100%" style="stop-color:#ffffff;stop-opacity:0.8" />
    </linearGradient>
  </defs>
  
  <!-- Background -->
  <rect width="32" height="32" rx="8" fill="url(#bg-gradient)"/>
  
  <!-- Shadow 'S' icon -->
  <path d="M16 4C12.5 4 10 6.5 10 10c0 2 1 3.5 2.5 4.5C11 15.5 10 17 10 19c0 3.5 2.5 6 6 6s6-2.5 6-6c0-2-1-3.5-2.5-4.5C21 13.5 22 12 22 10c0-3.5-2.5-6-6-6zm0 2c2.5 0 4 1.5 4 4 0 1.5-1 2.5-2 3-1-.5-2-1.5-2-3s1-2.5 2-3c-1-.5-2-1.5-2-3zm0 8c-1 .5-2 1.5-2 3s1 2.5 2 3c1-.5 2-1.5 2-3s-1-2.5-2-3z" fill="url(#icon-gradient)"/>
  
  <!-- Highlight -->
  <path d="M16 6c1.5 0 2.5 1 2.5 2.5S17.5 11 16 11s-2.5-1-2.5-2.5S14.5 6 16 6z" fill="rgba(255,255,255,0.3)"/>
</svg>